<mxfile host="app.diagrams.net" modified="2024-03-10T11:32:30.599Z" agent="Mozilla/5.0 (Windows NT 10.0; Win64; x64) AppleWebKit/537.36 (KHTML, like Gecko) Chrome/122.0.0.0 Safari/537.36" etag="kfkJHnOe-uIv0bXA0Xzi" version="24.0.4" type="device">
  <diagram id="R2lEEEUBdFMjLlhIrx00" name="Page-1">
    <mxGraphModel dx="1687" dy="868" grid="1" gridSize="10" guides="1" tooltips="1" connect="1" arrows="1" fold="1" page="1" pageScale="1" pageWidth="850" pageHeight="1100" math="0" shadow="0" extFonts="Permanent Marker^https://fonts.googleapis.com/css?family=Permanent+Marker">
      <root>
        <mxCell id="0" />
        <mxCell id="1" parent="0" />
        <mxCell id="zEt6zkrCrbHG8dTbvrx8-3" style="edgeStyle=orthogonalEdgeStyle;rounded=0;orthogonalLoop=1;jettySize=auto;html=1;verticalAlign=middle;endArrow=none;endFill=0;entryX=0.5;entryY=1;entryDx=0;entryDy=0;" edge="1" parent="1" source="zEt6zkrCrbHG8dTbvrx8-1" target="zEt6zkrCrbHG8dTbvrx8-4">
          <mxGeometry relative="1" as="geometry">
            <mxPoint x="115" y="130" as="targetPoint" />
          </mxGeometry>
        </mxCell>
        <mxCell id="zEt6zkrCrbHG8dTbvrx8-7" style="edgeStyle=orthogonalEdgeStyle;rounded=0;orthogonalLoop=1;jettySize=auto;html=1;entryX=0.5;entryY=0;entryDx=0;entryDy=0;endArrow=none;endFill=0;" edge="1" parent="1" source="zEt6zkrCrbHG8dTbvrx8-1" target="zEt6zkrCrbHG8dTbvrx8-6">
          <mxGeometry relative="1" as="geometry" />
        </mxCell>
        <mxCell id="zEt6zkrCrbHG8dTbvrx8-8" style="edgeStyle=orthogonalEdgeStyle;rounded=0;orthogonalLoop=1;jettySize=auto;html=1;endArrow=none;endFill=0;" edge="1" parent="1" source="zEt6zkrCrbHG8dTbvrx8-1" target="zEt6zkrCrbHG8dTbvrx8-9">
          <mxGeometry relative="1" as="geometry">
            <mxPoint x="260" y="185" as="targetPoint" />
          </mxGeometry>
        </mxCell>
        <mxCell id="zEt6zkrCrbHG8dTbvrx8-11" style="edgeStyle=orthogonalEdgeStyle;rounded=0;orthogonalLoop=1;jettySize=auto;html=1;entryX=0.5;entryY=1;entryDx=0;entryDy=0;endArrow=none;endFill=0;" edge="1" parent="1" source="zEt6zkrCrbHG8dTbvrx8-1" target="zEt6zkrCrbHG8dTbvrx8-10">
          <mxGeometry relative="1" as="geometry" />
        </mxCell>
        <mxCell id="zEt6zkrCrbHG8dTbvrx8-1" value="POSIT" style="rounded=0;whiteSpace=wrap;html=1;" vertex="1" parent="1">
          <mxGeometry x="80" y="170" width="70" height="30" as="geometry" />
        </mxCell>
        <mxCell id="zEt6zkrCrbHG8dTbvrx8-15" style="edgeStyle=orthogonalEdgeStyle;rounded=0;orthogonalLoop=1;jettySize=auto;html=1;entryX=0.5;entryY=1;entryDx=0;entryDy=0;endArrow=none;endFill=0;" edge="1" parent="1" source="zEt6zkrCrbHG8dTbvrx8-2" target="zEt6zkrCrbHG8dTbvrx8-14">
          <mxGeometry relative="1" as="geometry">
            <Array as="points">
              <mxPoint x="525" y="110" />
              <mxPoint x="430" y="110" />
              <mxPoint x="430" y="70" />
            </Array>
          </mxGeometry>
        </mxCell>
        <mxCell id="zEt6zkrCrbHG8dTbvrx8-17" style="edgeStyle=orthogonalEdgeStyle;rounded=0;orthogonalLoop=1;jettySize=auto;html=1;entryX=0.5;entryY=1;entryDx=0;entryDy=0;endArrow=none;endFill=0;" edge="1" parent="1" source="zEt6zkrCrbHG8dTbvrx8-2" target="zEt6zkrCrbHG8dTbvrx8-16">
          <mxGeometry relative="1" as="geometry" />
        </mxCell>
        <mxCell id="zEt6zkrCrbHG8dTbvrx8-21" style="edgeStyle=orthogonalEdgeStyle;rounded=0;orthogonalLoop=1;jettySize=auto;html=1;entryX=0.5;entryY=0;entryDx=0;entryDy=0;endArrow=none;endFill=0;" edge="1" parent="1" source="zEt6zkrCrbHG8dTbvrx8-2" target="zEt6zkrCrbHG8dTbvrx8-20">
          <mxGeometry relative="1" as="geometry" />
        </mxCell>
        <mxCell id="zEt6zkrCrbHG8dTbvrx8-23" style="edgeStyle=orthogonalEdgeStyle;rounded=0;orthogonalLoop=1;jettySize=auto;html=1;entryX=0.5;entryY=0;entryDx=0;entryDy=0;endArrow=none;endFill=0;" edge="1" parent="1" source="zEt6zkrCrbHG8dTbvrx8-2" target="zEt6zkrCrbHG8dTbvrx8-22">
          <mxGeometry relative="1" as="geometry" />
        </mxCell>
        <mxCell id="zEt6zkrCrbHG8dTbvrx8-55" style="edgeStyle=orthogonalEdgeStyle;rounded=0;orthogonalLoop=1;jettySize=auto;html=1;entryX=0;entryY=0.5;entryDx=0;entryDy=0;endArrow=none;endFill=0;" edge="1" parent="1" source="zEt6zkrCrbHG8dTbvrx8-2" target="zEt6zkrCrbHG8dTbvrx8-54">
          <mxGeometry relative="1" as="geometry">
            <Array as="points">
              <mxPoint x="670" y="185" />
              <mxPoint x="810" y="186" />
            </Array>
          </mxGeometry>
        </mxCell>
        <mxCell id="zEt6zkrCrbHG8dTbvrx8-2" value="TAREA" style="rounded=0;whiteSpace=wrap;html=1;" vertex="1" parent="1">
          <mxGeometry x="490" y="170" width="70" height="30" as="geometry" />
        </mxCell>
        <mxCell id="zEt6zkrCrbHG8dTbvrx8-4" value="CODIGO" style="ellipse;whiteSpace=wrap;html=1;fontStyle=5" vertex="1" parent="1">
          <mxGeometry x="10" y="90" width="70" height="40" as="geometry" />
        </mxCell>
        <mxCell id="zEt6zkrCrbHG8dTbvrx8-6" value="NOMBRE" style="ellipse;whiteSpace=wrap;html=1;fontStyle=0" vertex="1" parent="1">
          <mxGeometry x="80" y="230" width="70" height="40" as="geometry" />
        </mxCell>
        <mxCell id="zEt6zkrCrbHG8dTbvrx8-24" style="edgeStyle=orthogonalEdgeStyle;rounded=0;orthogonalLoop=1;jettySize=auto;html=1;entryX=0;entryY=0.5;entryDx=0;entryDy=0;endArrow=none;endFill=0;" edge="1" parent="1" source="zEt6zkrCrbHG8dTbvrx8-9" target="zEt6zkrCrbHG8dTbvrx8-2">
          <mxGeometry relative="1" as="geometry" />
        </mxCell>
        <mxCell id="zEt6zkrCrbHG8dTbvrx8-9" value="TIENE" style="rhombus;whiteSpace=wrap;html=1;" vertex="1" parent="1">
          <mxGeometry x="280" y="159.38" width="60" height="51.25" as="geometry" />
        </mxCell>
        <mxCell id="zEt6zkrCrbHG8dTbvrx8-10" value="ID_TAREA" style="ellipse;whiteSpace=wrap;html=1;fontStyle=0" vertex="1" parent="1">
          <mxGeometry x="140" y="90" width="70" height="40" as="geometry" />
        </mxCell>
        <mxCell id="zEt6zkrCrbHG8dTbvrx8-14" value="CODIGO" style="ellipse;whiteSpace=wrap;html=1;fontStyle=5" vertex="1" parent="1">
          <mxGeometry x="390" y="30" width="70" height="40" as="geometry" />
        </mxCell>
        <mxCell id="zEt6zkrCrbHG8dTbvrx8-16" value="NOMBRE" style="ellipse;whiteSpace=wrap;html=1;fontStyle=0" vertex="1" parent="1">
          <mxGeometry x="490" y="30" width="70" height="40" as="geometry" />
        </mxCell>
        <mxCell id="zEt6zkrCrbHG8dTbvrx8-20" value="DESCRIPCION" style="ellipse;whiteSpace=wrap;html=1;fontStyle=0" vertex="1" parent="1">
          <mxGeometry x="420" y="240" width="90" height="40" as="geometry" />
        </mxCell>
        <mxCell id="zEt6zkrCrbHG8dTbvrx8-22" value="FECHA_FIN" style="ellipse;whiteSpace=wrap;html=1;fontStyle=0" vertex="1" parent="1">
          <mxGeometry x="550" y="240" width="70" height="40" as="geometry" />
        </mxCell>
        <mxCell id="zEt6zkrCrbHG8dTbvrx8-27" value="1:N" style="text;html=1;align=center;verticalAlign=middle;whiteSpace=wrap;rounded=0;" vertex="1" parent="1">
          <mxGeometry x="280" y="120" width="60" height="30" as="geometry" />
        </mxCell>
        <mxCell id="zEt6zkrCrbHG8dTbvrx8-36" value="M:N" style="text;html=1;align=center;verticalAlign=middle;whiteSpace=wrap;rounded=0;" vertex="1" parent="1">
          <mxGeometry x="810" y="290" width="60" height="30" as="geometry" />
        </mxCell>
        <mxCell id="zEt6zkrCrbHG8dTbvrx8-48" style="edgeStyle=orthogonalEdgeStyle;rounded=0;orthogonalLoop=1;jettySize=auto;html=1;exitX=0.5;exitY=1;exitDx=0;exitDy=0;entryX=0.5;entryY=0;entryDx=0;entryDy=0;endArrow=none;endFill=0;" edge="1" parent="1" source="zEt6zkrCrbHG8dTbvrx8-45" target="zEt6zkrCrbHG8dTbvrx8-47">
          <mxGeometry relative="1" as="geometry" />
        </mxCell>
        <mxCell id="zEt6zkrCrbHG8dTbvrx8-71" style="edgeStyle=orthogonalEdgeStyle;rounded=0;orthogonalLoop=1;jettySize=auto;html=1;entryX=1;entryY=0.5;entryDx=0;entryDy=0;endArrow=none;endFill=0;" edge="1" parent="1" source="zEt6zkrCrbHG8dTbvrx8-45" target="zEt6zkrCrbHG8dTbvrx8-1">
          <mxGeometry relative="1" as="geometry">
            <mxPoint x="220" y="190" as="targetPoint" />
            <Array as="points">
              <mxPoint x="220" y="386" />
              <mxPoint x="220" y="185" />
            </Array>
          </mxGeometry>
        </mxCell>
        <mxCell id="zEt6zkrCrbHG8dTbvrx8-45" value="ALMACENA" style="rhombus;whiteSpace=wrap;html=1;" vertex="1" parent="1">
          <mxGeometry x="270" y="360" width="80" height="51.25" as="geometry" />
        </mxCell>
        <mxCell id="zEt6zkrCrbHG8dTbvrx8-74" style="edgeStyle=orthogonalEdgeStyle;rounded=0;orthogonalLoop=1;jettySize=auto;html=1;entryX=1;entryY=0.5;entryDx=0;entryDy=0;endArrow=none;endFill=0;" edge="1" parent="1" source="zEt6zkrCrbHG8dTbvrx8-47" target="zEt6zkrCrbHG8dTbvrx8-73">
          <mxGeometry relative="1" as="geometry" />
        </mxCell>
        <mxCell id="zEt6zkrCrbHG8dTbvrx8-81" style="edgeStyle=orthogonalEdgeStyle;rounded=0;orthogonalLoop=1;jettySize=auto;html=1;entryX=1;entryY=0.5;entryDx=0;entryDy=0;endArrow=none;endFill=0;" edge="1" parent="1" source="zEt6zkrCrbHG8dTbvrx8-47" target="zEt6zkrCrbHG8dTbvrx8-80">
          <mxGeometry relative="1" as="geometry" />
        </mxCell>
        <mxCell id="zEt6zkrCrbHG8dTbvrx8-47" value="GESTOR" style="rounded=0;whiteSpace=wrap;html=1;" vertex="1" parent="1">
          <mxGeometry x="275" y="480" width="70" height="30" as="geometry" />
        </mxCell>
        <mxCell id="zEt6zkrCrbHG8dTbvrx8-51" style="edgeStyle=orthogonalEdgeStyle;rounded=0;orthogonalLoop=1;jettySize=auto;html=1;entryX=0.5;entryY=0;entryDx=0;entryDy=0;endArrow=none;endFill=0;" edge="1" parent="1" source="zEt6zkrCrbHG8dTbvrx8-50" target="zEt6zkrCrbHG8dTbvrx8-2">
          <mxGeometry relative="1" as="geometry">
            <Array as="points">
              <mxPoint x="625" y="110" />
              <mxPoint x="525" y="110" />
            </Array>
          </mxGeometry>
        </mxCell>
        <mxCell id="zEt6zkrCrbHG8dTbvrx8-50" value="FECHA_INI" style="ellipse;whiteSpace=wrap;html=1;fontStyle=0" vertex="1" parent="1">
          <mxGeometry x="590" y="30" width="70" height="40" as="geometry" />
        </mxCell>
        <mxCell id="zEt6zkrCrbHG8dTbvrx8-54" value="TIENE" style="rhombus;whiteSpace=wrap;html=1;" vertex="1" parent="1">
          <mxGeometry x="810" y="160" width="60" height="51.25" as="geometry" />
        </mxCell>
        <mxCell id="zEt6zkrCrbHG8dTbvrx8-56" value="M:N" style="text;html=1;align=center;verticalAlign=middle;whiteSpace=wrap;rounded=0;" vertex="1" parent="1">
          <mxGeometry x="810" y="110" width="60" height="30" as="geometry" />
        </mxCell>
        <mxCell id="zEt6zkrCrbHG8dTbvrx8-57" style="edgeStyle=orthogonalEdgeStyle;rounded=0;orthogonalLoop=1;jettySize=auto;html=1;exitX=0.5;exitY=1;exitDx=0;exitDy=0;endArrow=none;endFill=0;" edge="1" parent="1" target="zEt6zkrCrbHG8dTbvrx8-58">
          <mxGeometry relative="1" as="geometry">
            <mxPoint x="840" y="211.25" as="sourcePoint" />
            <mxPoint x="744.89" y="277.7" as="targetPoint" />
            <Array as="points">
              <mxPoint x="840" y="220.25" />
              <mxPoint x="745" y="220.25" />
            </Array>
          </mxGeometry>
        </mxCell>
        <mxCell id="zEt6zkrCrbHG8dTbvrx8-58" value="CODIGO" style="ellipse;whiteSpace=wrap;html=1;fontStyle=5" vertex="1" parent="1">
          <mxGeometry x="710" y="240.25" width="70" height="40" as="geometry" />
        </mxCell>
        <mxCell id="zEt6zkrCrbHG8dTbvrx8-59" style="edgeStyle=orthogonalEdgeStyle;rounded=0;orthogonalLoop=1;jettySize=auto;html=1;entryX=0.5;entryY=1;entryDx=0;entryDy=0;endArrow=none;endFill=0;" edge="1" parent="1" source="zEt6zkrCrbHG8dTbvrx8-60">
          <mxGeometry relative="1" as="geometry">
            <mxPoint x="840" y="211.25" as="targetPoint" />
          </mxGeometry>
        </mxCell>
        <mxCell id="zEt6zkrCrbHG8dTbvrx8-60" value="ID_TAREA" style="ellipse;whiteSpace=wrap;html=1;fontStyle=0" vertex="1" parent="1">
          <mxGeometry x="805" y="240.25" width="70" height="40" as="geometry" />
        </mxCell>
        <mxCell id="zEt6zkrCrbHG8dTbvrx8-61" style="edgeStyle=orthogonalEdgeStyle;rounded=0;orthogonalLoop=1;jettySize=auto;html=1;endArrow=none;endFill=0;" edge="1" parent="1" source="zEt6zkrCrbHG8dTbvrx8-62">
          <mxGeometry relative="1" as="geometry">
            <mxPoint x="840" y="211.25" as="targetPoint" />
            <Array as="points">
              <mxPoint x="935" y="220.25" />
              <mxPoint x="840" y="220.25" />
            </Array>
          </mxGeometry>
        </mxCell>
        <mxCell id="zEt6zkrCrbHG8dTbvrx8-62" value="ID_ESTADO" style="ellipse;whiteSpace=wrap;html=1;fontStyle=0" vertex="1" parent="1">
          <mxGeometry x="900" y="240.25" width="70" height="40" as="geometry" />
        </mxCell>
        <mxCell id="zEt6zkrCrbHG8dTbvrx8-63" value="N:1" style="text;html=1;align=center;verticalAlign=middle;whiteSpace=wrap;rounded=0;" vertex="1" parent="1">
          <mxGeometry x="640" y="320" width="60" height="30" as="geometry" />
        </mxCell>
        <mxCell id="zEt6zkrCrbHG8dTbvrx8-70" style="edgeStyle=orthogonalEdgeStyle;rounded=0;orthogonalLoop=1;jettySize=auto;html=1;entryX=1;entryY=0.5;entryDx=0;entryDy=0;endArrow=none;endFill=0;" edge="1" parent="1" source="zEt6zkrCrbHG8dTbvrx8-65" target="zEt6zkrCrbHG8dTbvrx8-54">
          <mxGeometry relative="1" as="geometry" />
        </mxCell>
        <mxCell id="zEt6zkrCrbHG8dTbvrx8-65" value="ESTADO" style="rounded=0;whiteSpace=wrap;html=1;" vertex="1" parent="1">
          <mxGeometry x="1030" y="170.63" width="70" height="30" as="geometry" />
        </mxCell>
        <mxCell id="zEt6zkrCrbHG8dTbvrx8-66" style="edgeStyle=orthogonalEdgeStyle;rounded=0;orthogonalLoop=1;jettySize=auto;html=1;endArrow=none;endFill=0;" edge="1" parent="1" source="zEt6zkrCrbHG8dTbvrx8-67" target="zEt6zkrCrbHG8dTbvrx8-65">
          <mxGeometry relative="1" as="geometry" />
        </mxCell>
        <mxCell id="zEt6zkrCrbHG8dTbvrx8-67" value="CODIGO" style="ellipse;whiteSpace=wrap;html=1;fontStyle=5" vertex="1" parent="1">
          <mxGeometry x="1030" y="100.63" width="70" height="40" as="geometry" />
        </mxCell>
        <mxCell id="zEt6zkrCrbHG8dTbvrx8-68" style="edgeStyle=orthogonalEdgeStyle;rounded=0;orthogonalLoop=1;jettySize=auto;html=1;entryX=0.5;entryY=1;entryDx=0;entryDy=0;endArrow=none;endFill=0;" edge="1" parent="1" source="zEt6zkrCrbHG8dTbvrx8-69" target="zEt6zkrCrbHG8dTbvrx8-65">
          <mxGeometry relative="1" as="geometry" />
        </mxCell>
        <mxCell id="zEt6zkrCrbHG8dTbvrx8-69" value="ACTUAL" style="ellipse;whiteSpace=wrap;html=1;fontStyle=0" vertex="1" parent="1">
          <mxGeometry x="1030" y="230.63" width="70" height="40" as="geometry" />
        </mxCell>
        <mxCell id="zEt6zkrCrbHG8dTbvrx8-73" value="CODIGO" style="ellipse;whiteSpace=wrap;html=1;fontStyle=5" vertex="1" parent="1">
          <mxGeometry x="130" y="500" width="70" height="40" as="geometry" />
        </mxCell>
        <mxCell id="zEt6zkrCrbHG8dTbvrx8-80" value="ID_POSIT" style="ellipse;whiteSpace=wrap;html=1;fontStyle=0" vertex="1" parent="1">
          <mxGeometry x="130" y="430" width="70" height="40" as="geometry" />
        </mxCell>
      </root>
    </mxGraphModel>
  </diagram>
</mxfile>
